<svg width="151" height="48" fill="none" xmlns="http://www.w3.org/2000/svg"><path d="M12.028 31.422c-.75 0-1.367.267-1.902.775-.536.507-.777 1.147-.777 1.895 0 .747.268 1.361.803 1.895.536.534 1.18.801 1.93.801s1.392-.267 1.928-.8c.536-.535.804-1.149.804-1.896 0-.748-.268-1.361-.804-1.895a2.893 2.893 0 00-1.982-.775zm133.268-12.761c.751 0 1.42.267 1.956.774.536.534.804 1.148.804 1.895 0 .748-.268 1.362-.804 1.896-.536.534-1.179.774-1.929.774s-1.393-.267-1.928-.774c-.536-.534-.777-1.148-.777-1.896 0-.747.268-1.361.777-1.895.535-.534 1.178-.774 1.901-.774z" fill="#D70C18"/><path d="M150.011 6.567h-2.518V.32h-4.286v6.247h-2.518v3.684h2.518v6.62h4.286v-6.62h2.518V6.567zM12 0C9.859 0 7.85.534 5.975 1.602S2.652 4.138 1.58 5.98C.536 7.822 0 9.851 0 12.04c0 3.257 1.152 6.087 3.429 8.463 2.09 2.19 4.688 3.364 7.768 3.551-.24.347-.428.72-.59 1.068 0 0-.75 1.602-.75 4.512h4.233c0-3.31 2.572-5.42 2.572-5.42.938-.854 3.456-3.23 3.804-3.604 2.303-2.323 3.455-5.152 3.455-8.49 0-3.39-1.178-6.247-3.509-8.596C18.082 1.174 15.27 0 12.001 0zm6.805 15.564s-1.072 2.323-3.402 3.498a7.357 7.357 0 01-3.348.774 8.008 8.008 0 01-3-.587s-2.01-.721-3.483-2.937c-.75-1.202-1.125-2.59-1.125-4.218 0-2.27.723-4.165 2.17-5.633C8.063 4.992 9.857 4.245 12 4.245c2.116 0 3.91.747 5.384 2.27 1.473 1.52 2.197 3.363 2.197 5.552-.027 1.308-.295 2.456-.777 3.497zm58.611-2.376l-1.58-.774c-.67-.347-1.099-.587-1.286-.8-.16-.188-.268-.401-.268-.641 0-.294.134-.561.402-.748.268-.213.643-.294 1.125-.294.884 0 1.848.534 2.947 1.602l2.652-2.643a6.682 6.682 0 00-2.492-2.082 7.094 7.094 0 00-3.134-.72c-1.634 0-2.946.48-3.991 1.44-1.045.962-1.554 2.11-1.554 3.445 0 2.082 1.393 3.817 4.152 5.206l1.447.72c1.232.614 1.875 1.255 1.875 1.923 0 .347-.16.667-.509.934-.348.267-.804.4-1.366.4-.51 0-1.125-.186-1.795-.534a5.987 5.987 0 01-1.768-1.415l-2.652 2.857c1.473 1.949 3.483 2.91 5.974 2.91 1.875 0 3.375-.507 4.473-1.522 1.125-1.014 1.661-2.269 1.661-3.79 0-1.149-.294-2.136-.937-2.964-.59-.854-1.715-1.682-3.376-2.51zM92.525.32h-4.287v6.247h-2.517v3.684h2.518v13.295h4.286V10.251h2.545V6.567h-2.545V.32zM39.137 16.499a3.173 3.173 0 01-3.188 3.177 3.173 3.173 0 01-3.188-3.177V6.568h-4.286v9.904c0 4.111 3.349 7.449 7.474 7.449s7.474-3.338 7.474-7.449V6.567h-4.286V16.5zm26.573.347a8.263 8.263 0 00.188-1.842c0-.641-.08-1.255-.188-1.842a8.96 8.96 0 00-8.786-7.102c-4.956 0-8.974 4.005-8.974 8.944 0 4.939 4.018 8.943 8.974 8.943 3.241 0 6.08-1.735 7.661-4.298l-3.16-1.922c-.938 1.521-2.599 2.536-4.5 2.536a5.273 5.273 0 01-4.957-3.417H65.71zm-8.76-7.102a5.273 5.273 0 014.957 3.418h-9.885c.723-2.003 2.652-3.418 4.929-3.418zm54.862-3.204v1.015c-1.42-.907-3.081-1.468-4.902-1.468-4.956 0-8.947 4.005-8.947 8.917 0 4.939 4.018 8.917 8.947 8.917a9.092 9.092 0 004.902-1.442v1.015h4.072V6.54h-4.072zm-4.875 13.483a5.022 5.022 0 01-5.037-5.02 5.022 5.022 0 015.037-5.018 5.022 5.022 0 015.036 5.019c-.027 2.776-2.277 5.019-5.036 5.019zM130.938 6.14c-.83 0-1.634.16-2.411.48-.777.321-1.661.882-2.625 1.71V6.593h-4.286v16.98h4.259v-6.835c0-1.762.054-2.91.188-3.444.241-1.015.669-1.816 1.286-2.403.616-.587 1.366-.854 2.223-.854.67 0 1.232.16 1.688.534.455.347.776.854.964 1.522.187.667.268 2.002.268 4.03v7.423h4.232V12.334c0-1.95-.509-3.417-1.473-4.432-1.206-1.175-2.625-1.762-4.313-1.762zM29.306 36.762h3.83c1.741 0 2.68.96 2.68 2.562 0 1.602-.939 2.59-2.68 2.563h-2.679v3.55h-1.151v-8.675zm1.151 4.19h2.277c1.313 0 1.902-.56 1.902-1.601s-.589-1.602-1.902-1.602h-2.277v3.204zm9.349-1.922c2.01 0 3.081 1.442 3.081 3.31 0 1.843-1.072 3.284-3.08 3.284-2.01 0-3.081-1.441-3.081-3.283 0-1.869 1.071-3.31 3.08-3.31zm0 5.687c1.099 0 1.983-.855 1.983-2.376 0-1.522-.884-2.403-1.983-2.403-1.098 0-1.982.854-1.982 2.403 0 1.521.884 2.376 1.982 2.376zm10.554.773h-1.097l-1.286-5.018h-.027l-1.286 5.018H45.54l-2.036-6.3h1.152l1.42 5.153h.027l1.285-5.153h1.126l1.312 5.153h.027l1.42-5.153h1.071l-1.982 6.3zm8.412-2.001c-.294 1.414-1.286 2.135-2.705 2.135-2.01 0-2.974-1.415-3.027-3.31 0-1.895 1.259-3.283 2.973-3.283 2.25 0 2.92 2.082 2.866 3.603h-4.741c-.027 1.095.59 2.083 1.982 2.083.857 0 1.447-.4 1.634-1.228h1.018zm-.991-1.762c-.054-.988-.777-1.789-1.822-1.789-1.071 0-1.74.801-1.821 1.789h3.643zm2.143-2.563h.992V40.5h.026c.51-1.015 1.206-1.522 2.33-1.468v1.094c-1.687 0-2.276.934-2.276 2.563v2.803H59.95v-6.327h-.027zm9.509 4.325c-.294 1.414-1.285 2.135-2.705 2.135-2.01 0-2.973-1.415-3.027-3.31 0-1.895 1.259-3.283 2.973-3.283 2.25 0 2.92 2.082 2.867 3.603h-4.742c-.027 1.095.59 2.083 1.982 2.083.858 0 1.447-.4 1.635-1.228h1.017zm-1.017-1.762c-.054-.988-.777-1.789-1.822-1.789-1.072 0-1.741.801-1.822 1.789h3.644zm7.849 3.763H75.22v-.854h-.027c-.348.694-1.151.988-2.009.988-1.955 0-2.92-1.548-2.92-3.31 0-1.789.965-3.283 2.894-3.283.642 0 1.58.24 2.035.987h.027v-3.257h1.045v8.73zm-2.947-.774c1.42 0 1.929-1.2 1.929-2.375 0-1.228-.563-2.403-2.01-2.403-1.419 0-1.901 1.201-1.901 2.43.027 1.2.643 2.348 1.982 2.348zm7.982-7.955h1.045v3.257h.027c.348-.694 1.152-.987 2.01-.987 1.955 0 2.919 1.548 2.919 3.31 0 1.788-.964 3.283-2.893 3.283-.643 0-1.58-.24-2.036-.988h-.027v.854h-1.044v-8.729zm2.947 3.177c-1.42 0-1.928 1.201-1.928 2.376 0 1.228.562 2.402 2.008 2.402 1.42 0 1.903-1.2 1.903-2.429-.027-1.201-.643-2.349-1.983-2.349zm6.777 6.38c-.482 1.228-.91 1.682-1.848 1.682-.241 0-.482-.027-.723-.107v-.934c.187.053.402.133.616.133.428 0 .67-.187.857-.56l.429-1.068-2.518-6.273h1.178l1.849 5.151h.026l1.769-5.151h1.098l-2.733 7.127zm7.233-9.557h1.58l2.76 7.315 2.759-7.315h1.581v8.703h-1.099V38.23h-.027l-2.732 7.234h-.991l-2.706-7.234h-.026v7.234h-1.099V36.76zm16.073 8.703c-.188.107-.429.16-.75.16-.536 0-.884-.294-.884-.988-.563.694-1.34.988-2.224.988-1.151 0-2.089-.507-2.089-1.762 0-1.415 1.072-1.735 2.143-1.948 1.152-.24 2.143-.134 2.143-.935 0-.907-.75-1.04-1.42-1.04-.884 0-1.527.266-1.58 1.2h-1.045c.054-1.575 1.259-2.108 2.679-2.108 1.152 0 2.384.267 2.384 1.735v3.256c0 .48 0 .721.321.721.108 0 .215-.026.322-.053v.774zm-1.688-3.23c-.803.587-3.161 0-3.161 1.575 0 .694.59.934 1.233.934 1.366 0 1.928-.854 1.928-1.415v-1.094zm6.965-1.041c-.161-.801-.697-1.255-1.581-1.255-1.5 0-1.982 1.201-1.982 2.456 0 1.175.536 2.296 1.848 2.296 1.018 0 1.608-.56 1.742-1.548h1.071c-.241 1.548-1.179 2.455-2.786 2.455-1.928 0-2.973-1.334-2.973-3.23 0-1.895.991-3.39 3-3.39 1.447 0 2.572.668 2.732 2.162h-1.071v.054zm2.224-2.029h.991V40.5h.027c.508-1.015 1.205-1.522 2.33-1.468v1.094c-1.688 0-2.277.934-2.277 2.563v2.803h-1.045v-6.327h-.026zm6.857-.134c2.009 0 3.081 1.442 3.081 3.31 0 1.843-1.072 3.284-3.081 3.284s-3.081-1.441-3.081-3.283c0-1.869 1.072-3.31 3.081-3.31zm0 5.687c1.098 0 1.982-.855 1.982-2.376 0-1.522-.884-2.403-1.982-2.403-1.098 0-1.982.854-1.982 2.403 0 1.521.884 2.376 1.982 2.376zm4.286-5.553h.991v.934h.027c.482-.72 1.152-1.067 2.036-1.067.777 0 1.473.293 1.741 1.067.429-.694 1.152-1.067 1.982-1.067 1.259 0 2.117.534 2.117 1.842v4.618h-1.045v-4.138c0-.774-.214-1.415-1.232-1.415s-1.661.64-1.661 1.602v3.924h-1.045v-4.111c0-.828-.268-1.415-1.179-1.415-1.232 0-1.687 1.121-1.687 1.602v3.924h-1.045v-6.3zm11.546-1.121h-1.045V36.76h1.045v1.282zm-1.045 1.121h1.045v6.3h-1.045v-6.3zm2.732-2.403h1.045v8.703h-1.045V36.76zm2.706 0h1.044v8.703h-1.044V36.76z" fill="#595757"/></svg>